<svg version="1.1" id="Layer_1" xmlns="http://www.w3.org/2000/svg" xmlns:xlink="http://www.w3.org/1999/xlink" x="0px" y="0px"
	 width="100%" viewBox="0 0 200 200" enable-background="new 0 0 200 200" xml:space="preserve">
<path fill="#000000" opacity="1.000000" stroke="none" 
	d="
M101.000000,201.000000 
	C67.354073,201.000000 34.208145,201.000000 1.031109,201.000000 
	C1.031109,134.395767 1.031109,67.791527 1.031109,1.093641 
	C67.562431,1.093641 134.125046,1.093641 200.843826,1.093641 
	C200.843826,67.666382 200.843826,134.333145 200.843826,201.000000 
	C167.791809,201.000000 134.645905,201.000000 101.000000,201.000000 
M51.003204,119.019730 
	C51.003204,119.019730 51.012920,119.091072 51.750118,118.812302 
	C52.396095,116.767105 53.042072,114.721909 53.984268,111.738869 
	C53.984268,114.487480 53.626270,116.379837 54.108643,118.025948 
	C54.436668,119.145363 55.941948,119.919807 57.616768,120.992119 
	C58.157207,120.635963 58.697647,120.279808 59.890823,120.339455 
	C60.131359,120.455826 60.371895,120.572205 60.612427,120.688576 
	C60.741943,120.404427 60.992695,120.116287 60.983494,119.836708 
	C60.623154,108.889687 60.239132,97.943436 59.989792,86.090630 
	C59.376980,81.697449 61.705032,76.826172 57.997158,72.172737 
	C54.220402,68.367065 52.817814,73.823677 49.445427,74.001625 
	C48.984966,73.965195 48.524502,73.928764 48.028976,73.969162 
	C48.028976,73.969162 48.110638,73.947586 47.934170,73.451942 
	C47.629978,73.354385 47.325787,73.256821 46.291954,73.249489 
	C44.542816,74.465004 42.793678,75.680519 40.376335,77.114662 
	C39.908375,76.996536 39.194771,77.025002 39.019909,76.731979 
	C38.552052,75.947975 38.315269,75.026093 37.362839,73.856331 
	C32.062763,74.074326 32.062763,74.074326 32.982689,77.883530 
	C32.986389,80.846947 32.638134,83.864166 33.080894,86.760468 
	C33.663433,90.571060 32.305241,90.649918 29.151951,88.664421 
	C29.050957,87.781586 28.949963,86.898743 29.013132,85.201355 
	C28.873060,81.821632 29.776360,77.878006 28.331017,75.203735 
	C26.489872,71.797150 22.697735,74.308662 19.692751,74.198425 
	C18.808590,74.440239 17.924427,74.682060 16.761580,74.257393 
	C14.852413,74.141502 12.943246,74.025612 11.973620,73.966759 
	C12.426618,79.237701 12.797729,83.555832 13.059299,88.556725 
	C13.429427,88.826591 13.799555,89.096466 13.645797,89.898117 
	C9.869174,91.358269 11.281705,94.644722 10.967856,97.364006 
	C10.304552,103.111099 11.228325,104.301109 17.718945,104.732796 
	C22.711113,101.745934 23.374374,98.093994 20.894295,91.021500 
	C21.324579,91.141418 21.754864,91.261337 22.342491,91.855583 
	C22.872837,92.249489 23.403183,92.643394 23.762972,93.765556 
	C24.189739,97.902687 24.616507,102.039818 24.481554,106.097481 
	C24.007418,106.368690 23.533281,106.639900 23.015907,106.189751 
	C22.346342,105.944870 21.513884,105.321350 21.037783,105.526176 
	C19.614174,106.138611 18.330082,107.075348 16.635218,107.214760 
	C14.908552,106.876732 13.181887,106.538704 11.192520,106.149239 
	C11.862310,110.634186 12.153852,115.141342 13.334040,119.402374 
	C13.917079,121.507416 16.113386,122.889069 17.663042,119.158813 
	C18.436363,118.797089 19.209684,118.435364 20.264788,118.742157 
	C22.265411,119.460793 24.765188,121.261467 26.141424,120.626595 
	C27.896673,119.816887 28.956930,117.135719 29.895855,115.069923 
	C30.391121,113.980263 29.992092,112.484138 30.846321,111.030426 
	C31.559084,111.923317 32.537544,112.713425 32.930763,113.729935 
	C33.822342,116.034752 34.425713,118.451042 35.822151,120.984520 
	C36.599236,120.662544 37.376316,120.340569 38.773712,119.732513 
	C38.909813,119.286385 39.045914,118.840256 39.041553,118.854553 
	C40.383728,119.250114 41.658352,119.625763 43.290195,120.704956 
	C44.854519,120.752708 46.418839,120.800468 48.596409,120.862175 
	C49.088566,120.507080 49.580723,120.151985 50.559250,119.823875 
	C50.839931,119.626511 51.011898,119.359222 51.003204,119.019730 
M101.714485,102.490433 
	C105.458176,107.110893 112.083351,107.203423 115.150650,101.980965 
	C113.417953,101.706383 111.955658,101.507858 110.506989,101.236549 
	C108.743286,100.906242 106.519966,101.020721 105.396500,99.974884 
	C104.624405,99.256126 104.770126,96.294754 105.621284,95.414230 
	C106.633545,94.367012 108.833817,94.441292 110.532249,94.092583 
	C111.933327,93.804932 113.353233,93.609024 114.764801,93.372467 
	C113.497833,92.275551 112.391968,90.572563 110.936279,90.185600 
	C104.282631,88.416931 101.956779,90.551292 99.258484,99.476250 
	C98.208893,97.076256 97.268547,94.618965 96.054703,92.305138 
	C95.584503,91.408829 94.501335,90.283974 93.686325,90.275047 
	C92.888405,90.266312 91.735680,91.391327 91.331566,92.286392 
	C89.852165,95.563148 88.463531,98.902473 87.390228,102.327759 
	C87.069855,103.350197 87.892838,104.730896 88.518517,107.275490 
	C91.226135,103.512489 93.418312,101.193672 96.710152,104.421783 
	C97.510849,105.206963 98.802986,105.490982 99.869164,106.005440 
	C100.283569,104.723068 100.697983,103.440689 101.714485,102.490433 
M129.690933,94.369209 
	C128.132645,90.265335 125.405540,88.829758 120.992691,89.908607 
	C116.536240,90.998131 115.477448,94.409889 115.151253,98.004822 
	C114.735085,102.591408 117.875038,105.829803 122.682510,105.862473 
	C125.952583,105.884697 130.364182,106.762695 130.462845,101.045090 
	C130.462845,101.045090 130.949493,101.148232 131.022812,101.856110 
	C133.451889,105.909409 136.716858,107.167130 141.782486,104.972992 
	C142.913605,103.998062 144.044724,103.023132 145.573563,101.815292 
	C145.827545,101.594414 145.932877,101.317070 146.058151,100.524834 
	C146.058151,100.524834 146.206039,100.059296 146.756500,100.518196 
	C146.999756,104.577240 148.897461,106.513771 153.181183,105.905800 
	C158.521973,105.147827 161.108444,102.562363 160.979691,97.743935 
	C160.865311,93.464020 157.248764,89.386780 153.285172,89.510704 
	C149.230103,89.637497 145.634964,90.631767 147.375229,97.512154 
	C144.172852,91.435127 140.852722,88.307732 134.401886,89.943382 
	C133.970917,90.298882 133.539963,90.654373 132.801422,91.585953 
	C132.185760,92.679276 131.570099,93.772598 130.462799,94.946411 
	C130.462799,94.946411 129.971680,95.030075 129.690933,94.369209 
M82.133553,104.324417 
	C83.725861,106.554688 85.453178,106.347000 85.806793,103.789589 
	C86.280052,100.366905 86.206383,96.793015 85.767830,93.360680 
	C85.613579,92.153412 83.690384,91.172165 82.574890,90.087715 
	C81.683243,91.051270 80.555000,91.888069 79.955009,93.007889 
	C79.039330,94.716927 78.488754,96.621590 77.612244,98.884438 
	C76.409630,96.263618 75.736084,93.807579 74.267876,91.995354 
	C73.483650,91.027374 71.328140,91.170364 69.791504,90.811958 
	C69.978821,95.737961 70.148170,100.665054 70.446190,105.584351 
	C70.454536,105.722191 71.838310,105.776695 72.832558,105.901733 
	C72.909416,104.697571 72.958069,103.897247 73.012276,103.097282 
	C73.061562,102.370026 73.116890,101.643181 73.192574,100.598404 
	C73.692886,101.136681 73.977234,101.328987 74.104317,101.596115 
	C76.620384,106.885117 76.609871,106.880669 80.497704,102.620628 
	C80.564384,102.547577 81.479424,103.248756 82.133553,104.324417 
M172.993057,101.092903 
	C172.508896,103.541092 172.977219,105.583954 175.939011,105.392372 
	C178.157867,105.248863 182.188171,104.491127 182.209915,103.890884 
	C182.310791,101.105957 181.294647,98.280556 180.597641,95.101051 
	C180.791214,94.736671 182.284775,93.205589 181.971542,92.298164 
	C180.439011,87.858383 177.076569,90.132729 173.238159,90.346016 
	C173.746384,93.211891 174.305481,95.610748 174.521835,98.040115 
	C174.587448,98.777046 173.705643,99.598343 172.993057,101.092903 
M169.562698,102.010841 
	C168.773453,101.745544 167.984222,101.480255 166.100479,100.847054 
	C168.749924,99.868042 170.292313,99.298096 173.144135,98.244301 
	C170.519989,96.801796 168.903366,95.913124 166.863251,94.791664 
	C168.772964,93.932396 170.366180,93.215530 171.959412,92.498665 
	C171.953461,91.920090 171.947495,91.341522 171.941544,90.762955 
	C169.286438,90.553665 166.530991,89.860229 164.026779,90.379143 
	C163.057922,90.579918 162.399750,93.479317 162.071869,95.237289 
	C161.742508,97.003296 161.945038,98.880844 162.011780,100.705963 
	C162.179657,105.297440 166.339203,107.844444 170.334030,105.619415 
	C170.824432,105.346268 170.342484,103.327362 169.562698,102.010841 
z"/>
<path fill="#F3F7F5" opacity="1.000000" stroke="none" 
	d="
M50.111488,74.194046 
	C52.817814,73.823677 54.220402,68.367065 57.608765,72.712799 
	C55.982662,73.738510 54.744957,74.224144 54.696209,74.243271 
	C55.265015,77.618851 56.003345,80.332695 56.103836,83.069962 
	C56.202583,85.759766 56.515934,87.666985 59.858212,86.997086 
	C60.239132,97.943436 60.623154,108.889687 60.983494,119.836708 
	C60.992695,120.116287 60.741943,120.404427 60.612427,120.688576 
	C60.371895,120.572205 60.131359,120.455826 59.553120,119.671219 
	C59.215416,115.088959 59.215416,111.174934 59.215416,106.667007 
	C56.831234,106.980789 55.149338,107.202141 54.250660,107.320412 
	C55.031399,110.251984 55.717468,112.372940 56.139862,114.545158 
	C56.543034,116.618500 56.671535,118.745247 56.920784,120.848518 
	C55.941948,119.919807 54.436668,119.145363 54.108643,118.025948 
	C53.626270,116.379837 53.984268,114.487480 53.984268,111.738869 
	C53.042072,114.721909 52.396095,116.767105 51.216545,118.517395 
	C50.577106,114.574432 53.569958,110.141716 47.857029,107.531944 
	C43.098911,106.133911 40.954140,108.383934 41.086193,112.613533 
	C41.163605,115.092964 42.282543,117.539879 42.932972,120.001419 
	C41.658352,119.625763 40.383728,119.250114 39.041553,118.854553 
	C39.045914,118.840256 38.909813,119.286385 38.412144,119.412079 
	C38.050575,115.164490 38.050575,111.237320 38.050575,106.706802 
	C35.676205,106.976372 33.966740,107.170456 33.027897,107.277054 
	C33.835884,110.303619 34.629192,112.555618 34.997017,114.875099 
	C35.304882,116.816475 35.115475,118.836700 35.146263,120.822014 
	C34.425713,118.451042 33.822342,116.034752 32.930763,113.729935 
	C32.537544,112.713425 31.559084,111.923317 30.152050,110.985626 
	C28.976131,110.647713 28.494482,110.354607 28.021461,110.088562 
	C28.030088,110.115631 28.082792,110.136848 28.035511,109.797882 
	C27.006577,108.364929 26.024925,107.270935 25.043274,106.176949 
	C24.616507,102.039818 24.189739,97.902687 24.276611,93.416473 
	C25.238997,95.156433 25.680157,97.247147 26.139009,99.333961 
	C26.474419,100.859352 26.833101,102.379631 27.181408,103.902184 
	C27.714922,103.828262 28.248438,103.754349 28.781952,103.680428 
	C28.781952,99.195030 28.781952,94.709641 28.984964,89.970871 
	C29.313967,89.541489 29.439955,89.365494 29.565945,89.189491 
	C32.305241,90.649918 33.663433,90.571060 33.080894,86.760468 
	C32.638134,83.864166 32.986389,80.846947 33.394051,77.478325 
	C34.223305,78.961082 34.641331,80.849014 35.059048,82.737015 
	C35.385693,84.213379 35.711960,85.689835 36.038395,87.166245 
	C36.687820,87.092064 37.337250,87.017876 37.986675,86.943687 
	C37.986675,82.682121 37.986675,78.420555 37.986679,74.158989 
	C38.315269,75.026093 38.552052,75.947975 39.019909,76.731979 
	C39.194771,77.025002 39.908375,76.996536 40.699287,77.446823 
	C40.918964,85.740417 41.488487,86.612518 47.360100,86.947426 
	C53.011581,83.033066 53.370670,81.761269 50.781330,76.535019 
	C50.426910,75.819672 50.328453,74.977501 50.111488,74.194046 
M37.295055,90.102356 
	C31.888756,90.701096 31.812952,94.645203 32.126331,98.622910 
	C32.401039,102.109848 34.244995,104.130554 38.723995,103.730194 
	C42.496265,102.336334 43.106026,99.029739 42.314476,95.956459 
	C41.767803,93.833923 39.522728,92.148827 37.295055,90.102356 
M50.610687,101.723480 
	C50.630978,99.224968 50.805298,96.714378 50.610718,94.232712 
	C50.503147,92.860725 50.115501,90.745750 49.251507,90.376785 
	C47.946381,89.819427 46.114765,90.494896 45.825447,90.522163 
	C46.355614,94.373962 46.854767,97.324455 47.146366,100.295319 
	C47.487240,103.768219 47.564091,103.882614 50.610687,101.723480 
M56.165459,101.010414 
	C56.618900,101.994049 57.072342,102.977684 57.525787,103.961311 
	C58.105438,103.852661 58.685093,103.744011 59.264748,103.635361 
	C59.264748,100.431549 59.328701,97.226158 59.249439,94.024323 
	C59.136627,89.467293 57.745872,88.869240 54.816944,90.670731 
	C55.326168,94.275414 55.741531,97.215698 56.165459,101.010414 
z"/>
<path fill="#26168D" opacity="1.000000" stroke="none" 
	d="
M145.889572,100.983269 
	C145.932877,101.317070 145.827545,101.594414 145.066681,102.027206 
	C143.389679,103.110794 142.219589,103.982475 141.049500,104.854156 
	C136.716858,107.167130 133.451889,105.909409 131.004303,101.052170 
	C130.975342,98.454132 130.964890,96.660027 130.954437,94.865921 
	C131.570099,93.772598 132.185760,92.679276 133.239044,91.275063 
	C134.124680,90.656250 134.572708,90.348328 135.020721,90.040405 
	C140.852722,88.307732 144.172852,91.435127 147.375229,97.512154 
	C145.634964,90.631767 149.230103,89.637497 153.285172,89.510704 
	C157.248764,89.386780 160.865311,93.464020 160.979691,97.743935 
	C161.108444,102.562363 158.521973,105.147827 153.181183,105.905800 
	C148.897461,106.513771 146.999756,104.577240 146.293213,100.328758 
	C145.731644,100.217117 145.537430,100.334206 145.550598,100.366379 
	C145.638947,100.582100 145.771408,100.779755 145.889572,100.983269 
M135.648224,94.039375 
	C135.478745,94.386070 135.309265,94.732765 134.758316,95.711945 
	C135.168472,97.578766 135.067673,99.904068 136.178589,101.142075 
	C136.855164,101.896065 139.784454,101.502670 140.979126,100.632439 
	C141.883621,99.973587 141.645401,97.745949 141.893845,95.510735 
	C141.211090,95.024544 140.528336,94.538353 139.105743,94.014847 
	C138.118378,94.026802 137.131012,94.038750 135.648224,94.039375 
M155.404480,94.976433 
	C151.638412,94.073135 151.110260,95.438629 152.862946,101.782814 
	C156.008347,100.706337 158.549454,99.437096 155.404480,94.976433 
z"/>
<path fill="#29198E" opacity="1.000000" stroke="none" 
	d="
M82.066071,103.956535 
	C81.479424,103.248756 80.564384,102.547577 80.497704,102.620628 
	C76.609871,106.880669 76.620384,106.885117 74.104317,101.596115 
	C73.977234,101.328987 73.692886,101.136681 73.192574,100.598404 
	C73.116890,101.643181 73.061562,102.370026 73.012276,103.097282 
	C72.958069,103.897247 72.909416,104.697571 72.832558,105.901733 
	C71.838310,105.776695 70.454536,105.722191 70.446190,105.584351 
	C70.148170,100.665054 69.978821,95.737961 69.791504,90.811958 
	C71.328140,91.170364 73.483650,91.027374 74.267876,91.995354 
	C75.736084,93.807579 76.409630,96.263618 77.612244,98.884438 
	C78.488754,96.621590 79.039330,94.716927 79.955009,93.007889 
	C80.555000,91.888069 81.683243,91.051270 82.574890,90.087715 
	C83.690384,91.172165 85.613579,92.153412 85.767830,93.360680 
	C86.206383,96.793015 86.280052,100.366905 85.806793,103.789589 
	C85.453178,106.347000 83.725861,106.554688 82.066071,103.956535 
z"/>
<path fill="#29198E" opacity="1.000000" stroke="none" 
	d="
M129.971069,100.969925 
	C130.364182,106.762695 125.952583,105.884697 122.682510,105.862473 
	C117.875038,105.829803 114.735085,102.591408 115.151253,98.004822 
	C115.477448,94.409889 116.536240,90.998131 120.992691,89.908607 
	C125.405540,88.829758 128.132645,90.265335 129.843933,94.684784 
	C129.996933,95.000351 130.029037,94.978317 129.614563,94.905884 
	C128.089783,94.703529 126.966629,94.401131 125.872025,94.482536 
	C124.050758,94.617981 121.646126,94.409180 120.618958,95.455948 
	C119.724976,96.366982 119.702774,99.418968 120.569778,100.410355 
	C121.433937,101.398506 123.878510,101.091278 125.638916,101.181984 
	C127.095856,101.257042 128.565567,101.084412 130.013092,101.010773 
	C129.996567,101.000023 129.971069,100.969925 129.971069,100.969925 
z"/>
<path fill="#29198E" opacity="1.000000" stroke="none" 
	d="
M99.867599,99.778824 
	C101.956779,90.551292 104.282631,88.416931 110.936279,90.185600 
	C112.391968,90.572563 113.497833,92.275551 114.764801,93.372467 
	C113.353233,93.609024 111.933327,93.804932 110.532249,94.092583 
	C108.833817,94.441292 106.633545,94.367012 105.621284,95.414230 
	C104.770126,96.294754 104.624405,99.256126 105.396500,99.974884 
	C106.519966,101.020721 108.743286,100.906242 110.506989,101.236549 
	C111.955658,101.507858 113.417953,101.706383 115.150650,101.980965 
	C112.083351,107.203423 105.458176,107.110893 101.351868,101.979790 
	C100.615364,100.905701 100.241486,100.342262 99.867599,99.778824 
z"/>
<path fill="#2E1F8F" opacity="1.000000" stroke="none" 
	d="
M99.563042,99.627533 
	C100.241486,100.342262 100.615364,100.905701 101.050819,101.813736 
	C100.697983,103.440689 100.283569,104.723068 99.869164,106.005440 
	C98.802986,105.490982 97.510849,105.206963 96.710152,104.421783 
	C93.418312,101.193672 91.226135,103.512489 88.518517,107.275490 
	C87.892838,104.730896 87.069855,103.350197 87.390228,102.327759 
	C88.463531,98.902473 89.852165,95.563148 91.331566,92.286392 
	C91.735680,91.391327 92.888405,90.266312 93.686325,90.275047 
	C94.501335,90.283974 95.584503,91.408829 96.054703,92.305138 
	C97.268547,94.618965 98.208893,97.076256 99.563042,99.627533 
z"/>
<path fill="#2E1F8F" opacity="1.000000" stroke="none" 
	d="
M173.125427,100.736954 
	C173.705643,99.598343 174.587448,98.777046 174.521835,98.040115 
	C174.305481,95.610748 173.746384,93.211891 173.238159,90.346016 
	C177.076569,90.132729 180.439011,87.858383 181.971542,92.298164 
	C182.284775,93.205589 180.791214,94.736671 180.597641,95.101051 
	C181.294647,98.280556 182.310791,101.105957 182.209915,103.890884 
	C182.188171,104.491127 178.157867,105.248863 175.939011,105.392372 
	C172.977219,105.583954 172.508896,103.541092 173.125427,100.736954 
z"/>
<path fill="#24148E" opacity="1.000000" stroke="none" 
	d="
M169.936920,102.064156 
	C170.342484,103.327362 170.824432,105.346268 170.334030,105.619415 
	C166.339203,107.844444 162.179657,105.297440 162.011780,100.705963 
	C161.945038,98.880844 161.742508,97.003296 162.071869,95.237289 
	C162.399750,93.479317 163.057922,90.579918 164.026779,90.379143 
	C166.530991,89.860229 169.286438,90.553665 171.941544,90.762955 
	C171.947495,91.341522 171.953461,91.920090 171.959412,92.498665 
	C170.366180,93.215530 168.772964,93.932396 166.863251,94.791664 
	C168.903366,95.913124 170.519989,96.801796 173.144135,98.244301 
	C170.292313,99.298096 168.749924,99.868042 166.100479,100.847054 
	C167.984222,101.480255 168.773453,101.745544 169.936920,102.064156 
z"/>
<path fill="#0EF685" opacity="1.000000" stroke="none" 
	d="
M19.739334,74.969994 
	C22.697735,74.308662 26.489872,71.797150 28.331017,75.203735 
	C29.776360,77.878006 28.873060,81.821632 28.541279,85.619339 
	C26.226959,86.245308 24.291252,86.849205 22.592026,86.449005 
	C21.987965,86.306747 18.299288,87.365540 19.912994,83.576447 
	C19.644798,80.697968 19.367872,78.253189 19.042324,75.637306 
	C19.130445,75.111603 19.378988,74.946205 19.739334,74.969994 
M23.437910,83.693062 
	C24.238495,83.457703 25.039080,83.222343 25.990044,82.157463 
	C25.990044,80.495979 25.990044,78.834488 25.990044,77.173004 
	C25.342749,77.103455 24.695452,77.033905 24.048157,76.964355 
	C23.764883,79.002151 23.481607,81.039948 23.437910,83.693062 
z"/>
<path fill="#0EF685" opacity="1.000000" stroke="none" 
	d="
M24.762413,106.137215 
	C26.024925,107.270935 27.006577,108.364929 27.619463,109.843689 
	C25.997046,110.121040 24.743393,110.013626 23.419983,109.900238 
	C23.262184,111.688545 22.924938,113.078606 23.089727,114.406372 
	C23.223442,115.483780 23.960024,116.486374 24.429228,117.522148 
	C25.280687,116.761940 26.511217,116.156403 26.898664,115.206856 
	C27.551611,113.606621 27.669754,111.788170 28.012833,110.061501 
	C28.494482,110.354607 28.976131,110.647713 29.727314,111.056183 
	C29.992092,112.484138 30.391121,113.980263 29.895855,115.069923 
	C28.956930,117.135719 27.896673,119.816887 26.141424,120.626595 
	C24.765188,121.261467 22.265411,119.460793 20.144386,117.961472 
	C19.882086,113.416603 18.676996,109.338211 23.059143,106.911102 
	C23.533281,106.639900 24.007418,106.368690 24.762413,106.137215 
z"/>
<path fill="#20F585" opacity="1.000000" stroke="none" 
	d="
M17.007847,104.813133 
	C11.228325,104.301109 10.304552,103.111099 10.967856,97.364006 
	C11.281705,94.644722 9.869174,91.358269 14.125484,89.563202 
	C14.605171,89.228279 15.016477,89.026497 15.094044,89.359703 
	C16.058325,89.800858 16.945036,89.908798 17.880302,90.423073 
	C17.940601,91.920341 17.952345,93.011276 17.636471,94.207397 
	C17.046366,94.869453 16.783880,95.426331 16.512032,95.994835 
	C16.502670,96.006470 16.473320,96.000954 16.313622,95.686066 
	C15.571372,95.125504 14.988819,94.879837 14.295389,94.587418 
	C14.295389,96.225616 14.295389,97.761299 14.295389,99.749680 
	C15.301413,98.941116 15.887342,98.470192 16.487942,97.996407 
	C16.502611,97.993546 16.521397,98.016800 16.435223,98.355682 
	C16.887449,99.095604 17.425848,99.496635 17.970268,100.261429 
	C17.653475,102.021164 17.330662,103.417145 17.007847,104.813133 
z"/>
<path fill="#19FB82" opacity="1.000000" stroke="none" 
	d="
M47.008842,86.946152 
	C41.488487,86.612518 40.918964,85.740417 41.033386,77.337509 
	C42.793678,75.680519 44.542816,74.465004 46.789818,73.395187 
	C47.515869,73.769783 47.790188,73.905342 48.110638,73.947586 
	C48.110638,73.947586 48.028976,73.969162 48.026703,74.309357 
	C47.664936,75.775864 47.305443,76.902161 46.591328,78.193184 
	C46.675777,80.195740 43.876740,83.018745 47.894386,84.106415 
	C47.606377,85.276543 47.307610,86.111343 47.008842,86.946152 
z"/>
<path fill="#1DEA8F" opacity="1.000000" stroke="none" 
	d="
M17.047712,119.072929 
	C16.113386,122.889069 13.917079,121.507416 13.334040,119.402374 
	C12.153852,115.141342 11.862310,110.634186 11.192520,106.149239 
	C13.181887,106.538704 14.908552,106.876732 16.784821,108.016815 
	C16.972185,112.236885 17.009949,115.654907 17.047712,119.072929 
z"/>
<path fill="#19EC8F" opacity="1.000000" stroke="none" 
	d="
M13.168840,87.873978 
	C12.797729,83.555832 12.426618,79.237701 11.973620,73.966759 
	C12.943246,74.025612 14.852413,74.141502 16.850960,75.045380 
	C17.271973,79.495087 17.603605,83.156807 17.579750,86.893188 
	C15.872456,87.269890 14.520648,87.571930 13.168840,87.873978 
z"/>
<path fill="#19FB82" opacity="1.000000" stroke="none" 
	d="
M43.111584,120.353188 
	C42.282543,117.539879 41.163605,115.092964 41.086193,112.613533 
	C40.954140,108.383934 43.098911,106.133911 47.834209,107.927353 
	C47.973034,109.179596 47.932175,109.706169 47.494759,110.110779 
	C42.260826,109.610596 44.267113,113.288971 44.196083,115.401436 
	C44.180504,115.864723 46.643078,116.411339 47.974388,117.312370 
	C47.983959,118.752853 47.983559,119.800537 47.983162,120.848228 
	C46.418839,120.800468 44.854519,120.752708 43.111584,120.353188 
z"/>
<path fill="#19EC8F" opacity="1.000000" stroke="none" 
	d="
M59.924004,86.543854 
	C56.515934,87.666985 56.202583,85.759766 56.103836,83.069962 
	C56.003345,80.332695 55.265015,77.618851 54.696209,74.243271 
	C54.744957,74.224144 55.982662,73.738510 57.537689,73.106071 
	C61.705032,76.826172 59.376980,81.697449 59.924004,86.543854 
z"/>
<path fill="#19EC8F" opacity="1.000000" stroke="none" 
	d="
M16.521397,98.016800 
	C16.521397,98.016800 16.502611,97.993546 15.991773,97.770638 
	C15.811729,97.032135 16.142523,96.516548 16.473320,96.000954 
	C16.473320,96.000954 16.502670,96.006470 16.879641,95.963989 
	C17.492437,95.315079 17.728264,94.708641 17.964088,94.102211 
	C17.952345,93.011276 17.940601,91.920341 17.890436,90.282951 
	C17.852016,89.736496 18.042665,89.535553 17.941395,89.431244 
	C17.840126,89.326935 17.994928,89.080803 18.256409,88.934479 
	C18.656754,88.644554 18.795618,88.500961 19.166704,88.482224 
	C19.609970,88.378220 19.821014,88.149384 20.043362,87.933975 
	C20.054665,87.947403 20.080765,87.970879 19.819763,88.023911 
	C19.566685,88.397789 19.574604,88.718643 19.796146,89.514709 
	C20.076790,90.330742 20.143810,90.671570 20.210831,91.012390 
	C23.374374,98.093994 22.711113,101.745934 17.363396,104.772964 
	C17.330662,103.417145 17.653475,102.021164 18.012207,99.895035 
	C17.539213,98.782196 17.030306,98.399498 16.521397,98.016800 
z"/>
<path fill="#F3F7F5" opacity="1.000000" stroke="none" 
	d="
M20.552563,91.016945 
	C20.143810,90.671570 20.076790,90.330742 20.044575,89.809753 
	C20.586311,89.589828 21.093243,89.550064 21.600176,89.510300 
	C21.093706,88.997162 20.587236,88.484016 20.080765,87.970879 
	C20.080765,87.970879 20.054665,87.947403 19.933056,87.630226 
	C19.183155,87.186928 18.554861,87.060806 17.951637,86.907356 
	C17.976704,86.880020 17.935236,86.818527 17.935236,86.818527 
	C17.603605,83.156807 17.271973,79.495087 16.990303,75.378616 
	C17.924427,74.682060 18.808590,74.440239 19.716042,74.584213 
	C19.378988,74.946205 19.130445,75.111603 19.023540,75.661179 
	C19.053381,75.856163 19.054609,75.917770 18.669796,76.075760 
	C18.484688,78.805534 18.684393,81.377319 19.138876,83.968765 
	C19.563856,83.995667 19.734060,84.002899 19.904263,84.010139 
	C18.299288,87.365540 21.987965,86.306747 22.592026,86.449005 
	C24.291252,86.849205 26.226959,86.245308 28.459196,86.026611 
	C28.949963,86.898743 29.050957,87.781586 29.358948,88.926956 
	C29.439955,89.365494 29.313967,89.541489 28.599360,89.913811 
	C26.068876,90.533844 24.127012,90.957558 22.185146,91.381271 
	C21.754864,91.261337 21.324579,91.141418 20.552563,91.016945 
z"/>
<path fill="#1DEA8F" opacity="1.000000" stroke="none" 
	d="
M35.484207,120.903267 
	C35.115475,118.836700 35.304882,116.816475 34.997017,114.875099 
	C34.629192,112.555618 33.835884,110.303619 33.027897,107.277054 
	C33.966740,107.170456 35.676205,106.976372 38.050575,106.706802 
	C38.050575,111.237320 38.050575,115.164490 38.101986,119.555115 
	C37.376316,120.340569 36.599236,120.662544 35.484207,120.903267 
z"/>
<path fill="#24E890" opacity="1.000000" stroke="none" 
	d="
M22.263821,91.618423 
	C24.127012,90.957558 26.068876,90.533844 28.396347,90.167191 
	C28.781952,94.709641 28.781952,99.195030 28.781952,103.680428 
	C28.248438,103.754349 27.714922,103.828262 27.181408,103.902184 
	C26.833101,102.379631 26.474419,100.859352 26.139009,99.333961 
	C25.680157,97.247147 25.238997,95.156433 24.361889,93.052338 
	C23.403183,92.643394 22.872837,92.249489 22.263821,91.618423 
z"/>
<path fill="#19EC8F" opacity="1.000000" stroke="none" 
	d="
M37.674759,74.007660 
	C37.986675,78.420555 37.986675,82.682121 37.986675,86.943687 
	C37.337250,87.017876 36.687820,87.092064 36.038395,87.166245 
	C35.711960,85.689835 35.385693,84.213379 35.059048,82.737015 
	C34.641331,80.849014 34.223305,78.961082 33.375366,77.076553 
	C32.062763,74.074326 32.062763,74.074326 37.674759,74.007660 
z"/>
<path fill="#1DEA8F" opacity="1.000000" stroke="none" 
	d="
M57.268776,120.920319 
	C56.671535,118.745247 56.543034,116.618500 56.139862,114.545158 
	C55.717468,112.372940 55.031399,110.251984 54.250660,107.320412 
	C55.149338,107.202141 56.831234,106.980789 59.215416,106.667007 
	C59.215416,111.174934 59.215416,115.088959 59.226753,119.463318 
	C58.697647,120.279808 58.157207,120.635963 57.268776,120.920319 
z"/>
<path fill="#0FF08E" opacity="1.000000" stroke="none" 
	d="
M47.360100,86.947426 
	C47.307610,86.111343 47.606377,85.276543 47.904873,83.735397 
	C47.585052,81.362198 47.265503,79.695328 46.945950,78.028465 
	C47.305443,76.902161 47.664936,75.775864 48.044235,74.270950 
	C48.524502,73.928764 48.984966,73.965195 49.778458,74.097839 
	C50.328453,74.977501 50.426910,75.819672 50.781330,76.535019 
	C53.370670,81.761269 53.011581,83.033066 47.360100,86.947426 
z"/>
<path fill="#F3F7F5" opacity="1.000000" stroke="none" 
	d="
M17.355377,119.115875 
	C17.009949,115.654907 16.972185,112.236885 16.962971,108.352165 
	C18.330082,107.075348 19.614174,106.138611 21.037783,105.526176 
	C21.513884,105.321350 22.346342,105.944870 23.037525,106.550430 
	C18.676996,109.338211 19.882086,113.416603 20.003494,117.627205 
	C19.209684,118.435364 18.436363,118.797089 17.355377,119.115875 
z"/>
<path fill="#19EC8F" opacity="1.000000" stroke="none" 
	d="
M47.891319,110.232742 
	C47.932175,109.706169 47.973034,109.179596 48.036716,108.257614 
	C53.569958,110.141716 50.577106,114.574432 50.847946,118.656784 
	C51.012920,119.091072 51.003204,119.019730 50.780029,118.900261 
	C50.395535,119.119499 50.234211,119.458199 50.072884,119.796898 
	C49.580723,120.151985 49.088566,120.507080 48.289783,120.855202 
	C47.983559,119.800537 47.983959,118.752853 48.025169,116.894623 
	C48.007755,114.133636 47.949535,112.183189 47.891319,110.232742 
z"/>
<path fill="#EAF3EE" opacity="1.000000" stroke="none" 
	d="
M13.114069,88.215347 
	C14.520648,87.571930 15.872456,87.269890 17.579750,86.893188 
	C17.935236,86.818527 17.976704,86.880020 18.089170,87.344093 
	C18.445919,87.991234 18.690201,88.174309 18.934481,88.357376 
	C18.795618,88.500961 18.656754,88.644554 18.137039,88.508118 
	C16.845911,88.480446 15.935630,88.732811 15.019905,88.994339 
	C15.014462,89.003502 15.016477,89.026497 15.016477,89.026497 
	C15.016477,89.026497 14.605171,89.228279 14.387426,89.297302 
	C13.799555,89.096466 13.429427,88.826591 13.114069,88.215347 
z"/>
<path fill="#2B1C8F" opacity="1.000000" stroke="none" 
	d="
M141.415985,104.913574 
	C142.219589,103.982475 143.389679,103.110794 144.867798,102.143661 
	C144.044724,103.023132 142.913605,103.998062 141.415985,104.913574 
z"/>
<path fill="#2B1C8F" opacity="1.000000" stroke="none" 
	d="
M130.708618,94.906166 
	C130.964890,96.660027 130.975342,98.454132 130.967651,100.698235 
	C130.949493,101.148232 130.462845,101.045090 130.216949,101.007507 
	C129.971069,100.969925 129.996567,101.000023 129.985260,100.579872 
	C129.992310,98.432587 130.010666,96.705452 130.029022,94.978317 
	C130.029037,94.978317 129.996933,95.000351 129.984314,95.015213 
	C129.971680,95.030075 130.462799,94.946411 130.708618,94.906166 
z"/>
<path fill="#2B1C8F" opacity="1.000000" stroke="none" 
	d="
M134.711304,89.991898 
	C134.572708,90.348328 134.124680,90.656250 133.392822,90.987022 
	C133.539963,90.654373 133.970917,90.298882 134.711304,89.991898 
z"/>
<path fill="#0FF08E" opacity="1.000000" stroke="none" 
	d="
M48.022404,73.699768 
	C47.790188,73.905342 47.515869,73.769783 47.154640,73.350075 
	C47.325787,73.256821 47.629978,73.354385 48.022404,73.699768 
z"/>
<path fill="#F3F7F5" opacity="1.000000" stroke="none" 
	d="
M50.316071,119.810387 
	C50.234211,119.458199 50.395535,119.119499 50.816002,118.901398 
	C51.011898,119.359222 50.839931,119.626511 50.316071,119.810387 
z"/>
<path fill="#2B1C8F" opacity="1.000000" stroke="none" 
	d="
M145.973862,100.754051 
	C145.771408,100.779755 145.638947,100.582100 145.550598,100.366379 
	C145.537430,100.334206 145.731644,100.217117 146.017975,100.099304 
	C146.206039,100.059296 146.058151,100.524834 145.973862,100.754051 
z"/>
<path fill="#40E19A" opacity="1.000000" stroke="none" 
	d="
M50.522449,102.128723 
	C47.564091,103.882614 47.487240,103.768219 47.146366,100.295319 
	C46.854767,97.324455 46.355614,94.373962 45.825447,90.522163 
	C46.114765,90.494896 47.946381,89.819427 49.251507,90.376785 
	C50.115501,90.745750 50.503147,92.860725 50.610718,94.232712 
	C50.805298,96.714378 50.630978,99.224968 50.522449,102.128723 
z"/>
<path fill="#20F585" opacity="1.000000" stroke="none" 
	d="
M38.030910,103.731239 
	C34.244995,104.130554 32.401039,102.109848 32.126331,98.622910 
	C31.812952,94.645203 31.888756,90.701096 37.825474,90.482407 
	C38.497120,91.721664 38.638348,92.580864 38.412403,93.327347 
	C34.115311,93.077637 34.902000,96.136772 35.262127,98.095825 
	C35.446613,99.099426 37.544598,99.751274 38.824142,100.895645 
	C38.590641,102.063202 38.310776,102.897224 38.030910,103.731239 
z"/>
<path fill="#24E890" opacity="1.000000" stroke="none" 
	d="
M56.161179,100.583191 
	C55.741531,97.215698 55.326168,94.275414 54.816944,90.670731 
	C57.745872,88.869240 59.136627,89.467293 59.249439,94.024323 
	C59.328701,97.226158 59.264748,100.431549 59.264748,103.635361 
	C58.685093,103.744011 58.105438,103.852661 57.525787,103.961311 
	C57.072342,102.977684 56.618900,101.994049 56.161179,100.583191 
z"/>
<path fill="#24E890" opacity="1.000000" stroke="none" 
	d="
M38.779575,93.440063 
	C38.638348,92.580864 38.497120,91.721664 38.196259,90.565353 
	C39.522728,92.148827 41.767803,93.833923 42.314476,95.956459 
	C43.106026,99.029739 42.496265,102.336334 38.377453,103.730713 
	C38.310776,102.897224 38.590641,102.063202 38.945320,100.512314 
	C38.939949,97.676987 38.859764,95.558525 38.779575,93.440063 
z"/>
<path fill="#000000" opacity="1.000000" stroke="none" 
	d="
M141.915710,96.216438 
	C141.645401,97.745949 141.883621,99.973587 140.979126,100.632439 
	C139.784454,101.502670 136.855164,101.896065 136.178589,101.142075 
	C135.067673,99.904068 135.168472,97.578766 135.176361,95.291321 
	C135.777496,94.597366 135.960571,94.324036 136.143646,94.050705 
	C137.131012,94.038750 138.118378,94.026802 139.613159,94.305984 
	C140.718948,95.136894 141.317322,95.676666 141.915710,96.216438 
z"/>
<path fill="#000000" opacity="1.000000" stroke="none" 
	d="
M155.685547,95.255165 
	C158.549454,99.437096 156.008347,100.706337 152.862946,101.782814 
	C151.110260,95.438629 151.638412,94.073135 155.685547,95.255165 
z"/>
<path fill="#2B1C8F" opacity="1.000000" stroke="none" 
	d="
M141.904770,95.863586 
	C141.317322,95.676666 140.718948,95.136894 139.983078,94.324646 
	C140.528336,94.538353 141.211090,95.024544 141.904770,95.863586 
z"/>
<path fill="#2B1C8F" opacity="1.000000" stroke="none" 
	d="
M135.895935,94.045044 
	C135.960571,94.324036 135.777496,94.597366 135.367111,94.975082 
	C135.309265,94.732765 135.478745,94.386070 135.895935,94.045044 
z"/>
<path fill="#000000" opacity="1.000000" stroke="none" 
	d="
M129.614563,94.905884 
	C130.010666,96.705452 129.992310,98.432587 130.001785,100.590622 
	C128.565567,101.084412 127.095856,101.257042 125.638916,101.181984 
	C123.878510,101.091278 121.433937,101.398506 120.569778,100.410355 
	C119.702774,99.418968 119.724976,96.366982 120.618958,95.455948 
	C121.646126,94.409180 124.050758,94.617981 125.872025,94.482536 
	C126.966629,94.401131 128.089783,94.703529 129.614563,94.905884 
z"/>
<path fill="#000000" opacity="1.000000" stroke="none" 
	d="
M23.198334,83.077744 
	C23.481607,81.039948 23.764883,79.002151 24.048157,76.964355 
	C24.695452,77.033905 25.342749,77.103455 25.990044,77.173004 
	C25.990044,78.834488 25.990044,80.495979 25.617353,82.451202 
	C25.025028,82.208870 24.805395,81.672783 24.526716,80.992584 
	C23.938486,81.915932 23.568409,82.496834 23.198334,83.077744 
z"/>
<path fill="#EAF3EE" opacity="1.000000" stroke="none" 
	d="
M19.912994,83.576447 
	C19.734060,84.002899 19.563856,83.995667 19.216000,83.529831 
	C19.043768,80.686752 19.049189,78.302261 19.054609,75.917770 
	C19.054609,75.917770 19.053381,75.856163 19.072163,75.832291 
	C19.367872,78.253189 19.644798,80.697968 19.912994,83.576447 
z"/>
<path fill="#F3F7F5" opacity="1.000000" stroke="none" 
	d="
M23.318123,83.385406 
	C23.568409,82.496834 23.938486,81.915932 24.526716,80.992584 
	C24.805395,81.672783 25.025028,82.208870 25.542164,82.865967 
	C25.039080,83.222343 24.238495,83.457703 23.318123,83.385406 
z"/>
<path fill="#EAF3EE" opacity="1.000000" stroke="none" 
	d="
M28.021461,110.088562 
	C27.669754,111.788170 27.551611,113.606621 26.898664,115.206856 
	C26.511217,116.156403 25.280687,116.761940 24.429228,117.522148 
	C23.960024,116.486374 23.223442,115.483780 23.089727,114.406372 
	C22.924938,113.078606 23.262184,111.688545 23.419983,109.900238 
	C24.743393,110.013626 25.997046,110.121040 27.666744,110.182648 
	C28.082792,110.136848 28.030088,110.115631 28.021461,110.088562 
z"/>
<path fill="#F3F7F5" opacity="1.000000" stroke="none" 
	d="
M16.313622,95.686066 
	C16.142523,96.516548 15.811729,97.032135 15.977104,97.773499 
	C15.887342,98.470192 15.301413,98.941116 14.295389,99.749680 
	C14.295389,97.761299 14.295389,96.225616 14.295389,94.587418 
	C14.988819,94.879837 15.571372,95.125504 16.313622,95.686066 
z"/>
<path fill="#F3F7F5" opacity="1.000000" stroke="none" 
	d="
M18.042665,89.535553 
	C18.042665,89.535553 17.852016,89.736496 17.841883,89.876617 
	C16.945036,89.908798 16.058325,89.800858 15.094044,89.359703 
	C15.016477,89.026497 15.014462,89.003502 15.419704,89.000595 
	C16.564186,89.176971 17.303425,89.356262 18.042665,89.535553 
z"/>
<path fill="#F3F7F5" opacity="1.000000" stroke="none" 
	d="
M16.435223,98.355682 
	C17.030306,98.399498 17.539213,98.782196 18.006186,99.531281 
	C17.425848,99.496635 16.887449,99.095604 16.435223,98.355682 
z"/>
<path fill="#F3F7F5" opacity="1.000000" stroke="none" 
	d="
M17.636471,94.207397 
	C17.728264,94.708641 17.492437,95.315079 16.889004,95.952354 
	C16.783880,95.426331 17.046366,94.869453 17.636471,94.207397 
z"/>
<path fill="#F3F7F5" opacity="1.000000" stroke="none" 
	d="
M46.591328,78.193184 
	C47.265503,79.695328 47.585052,81.362198 47.894115,83.400078 
	C43.876740,83.018745 46.675777,80.195740 46.591328,78.193184 
z"/>
<path fill="#EAF3EE" opacity="1.000000" stroke="none" 
	d="
M47.494762,110.110779 
	C47.949535,112.183189 48.007755,114.133636 48.015198,116.501831 
	C46.643078,116.411339 44.180504,115.864723 44.196083,115.401436 
	C44.267113,113.288971 42.260826,109.610596 47.494762,110.110779 
z"/>
<path fill="#000000" opacity="1.000000" stroke="none" 
	d="
M17.941395,89.431244 
	C17.303425,89.356262 16.564186,89.176971 15.425148,88.991425 
	C15.935630,88.732811 16.845911,88.480446 17.875561,88.654442 
	C17.994928,89.080803 17.840126,89.326935 17.941395,89.431244 
z"/>
<path fill="#000000" opacity="1.000000" stroke="none" 
	d="
M19.819763,88.023911 
	C20.587236,88.484016 21.093706,88.997162 21.600176,89.510300 
	C21.093243,89.550064 20.586311,89.589828 19.830952,89.334541 
	C19.574604,88.718643 19.566685,88.397789 19.819763,88.023911 
z"/>
<path fill="#000000" opacity="1.000000" stroke="none" 
	d="
M19.166704,88.482224 
	C18.690201,88.174309 18.445919,87.991234 18.064102,87.371429 
	C18.554861,87.060806 19.183155,87.186928 19.921753,87.616791 
	C19.821014,88.149384 19.609970,88.378220 19.166704,88.482224 
z"/>
<path fill="#000000" opacity="1.000000" stroke="none" 
	d="
M18.669796,76.075760 
	C19.049189,78.302261 19.043768,80.686752 18.961224,83.510178 
	C18.684393,81.377319 18.484688,78.805534 18.669796,76.075760 
z"/>
<path fill="#EAF3EE" opacity="1.000000" stroke="none" 
	d="
M38.412403,93.327347 
	C38.859764,95.558525 38.939949,97.676987 38.898960,100.178772 
	C37.544598,99.751274 35.446613,99.099426 35.262127,98.095825 
	C34.902000,96.136772 34.115311,93.077637 38.412403,93.327347 
z"/>
</svg>